<?xml version="1.0" encoding="UTF-8"?>
<svg width="28px" height="37px" viewBox="0 0 28 37" version="1.1" xmlns="http://www.w3.org/2000/svg" xmlns:xlink="http://www.w3.org/1999/xlink">
    <!-- Generator: Sketch 49.3 (51167) - http://www.bohemiancoding.com/sketch -->
    <title>Page 1</title>
    <desc>Created with Sketch.</desc>
    <defs></defs>
    <g id="Page-1" stroke="none" stroke-width="1" fill="none" fill-rule="evenodd">
        <g id="320-DP-MyProperty-Hub---Trans-closed-Copy" transform="translate(-45.000000, -784.000000)" fill="#D04A5D">
            <g id="Group-2" transform="translate(27.000000, 618.000000)">
                <path d="M45,202 L19,202 L19,172 L25.1904762,172 L25.1904762,173.25 L20.8571429,173.25 C20.5148095,173.25 20.2380952,173.529375 20.2380952,173.875 L20.2380952,198.875 C20.2380952,199.220625 20.5148095,199.5 20.8571429,199.5 L43.1428571,199.5 C43.4851905,199.5 43.7619048,199.220625 43.7619048,198.875 L43.7619048,173.875 C43.7619048,173.529375 43.4851905,173.25 43.1428571,173.25 L38.8095238,173.25 L38.8095238,172 L45,172 L45,202 Z M27,170.5 L28.8333333,170.5 C29.1712778,170.5 29.4444444,170.23925 29.4444444,169.916667 C29.4444444,167.912333 31.0284444,167 32.5,167 C33.9715556,167 35.5555556,167.912333 35.5555556,169.916667 C35.5555556,170.23925 35.8287222,170.5 36.1666667,170.5 L38,170.5 L38,174 L27,174 L27,170.5 Z M43,187.123968 L39.9117647,187.123968 C39.6776765,187.123968 39.4639706,187.253694 39.3589706,187.459195 L37.5560588,191 L34.3208235,181.476623 C34.2399118,181.237781 34.0169412,181.073502 33.7612353,181.06259 C33.4882353,181.04501 33.2689706,181.198378 33.1676765,181.42934 L30.0491765,188.570963 L28.1326176,183.868076 C28.0473824,183.658938 27.8509706,183.51345 27.6230588,183.490414 C27.3926765,183.468591 27.1721765,183.569826 27.0449412,183.756536 L24.7577941,187.123968 L22,187.123968 L22,175 L25.7058824,175 L25.7058824,175.606198 C25.7058824,175.941426 25.9819706,176.212397 26.3235294,176.212397 L38.6764706,176.212397 C39.0180294,176.212397 39.2941176,175.941426 39.2941176,175.606198 L39.2941176,175 L43,175 L43,187.123968 Z M22,188.077724 L25.0882353,188.077724 C25.2945294,188.077724 25.4872353,187.974161 25.6021176,187.801761 L27.4210882,185.061973 L29.4556176,190.168224 C29.5488824,190.401397 29.7718529,190.555193 30.022,190.558293 C30.2795588,190.553332 30.4988235,190.41256 30.5970294,190.182487 L33.6630294,183 L36.8556471,192.614685 C36.9347059,192.85282 37.1477941,193.019638 37.3973235,193.037002 C37.4121471,193.038242 37.4269706,193.038862 37.4411765,193.038862 C37.6740294,193.038862 37.8889706,192.907392 37.9939706,192.695924 L40.2934706,188.077724 L43,188.077724 L43,198 L22,198 L22,188.077724 Z M45.3913043,170.933333 L38.6956522,170.933333 L38.6956522,170.316667 C38.6956522,169.97565 38.4235652,169.7 38.0869565,169.7 L36.2249565,169.7 C35.9388696,167.268483 33.9581739,166 32,166 C30.0418261,166 28.0611304,167.268483 27.7750435,169.7 L25.9130435,169.7 C25.5764348,169.7 25.3043478,169.97565 25.3043478,170.316667 L25.3043478,170.933333 L18.6086957,170.933333 C18.272087,170.933333 18,171.208983 18,171.55 L18,202.383333 C18,202.72435 18.272087,203 18.6086957,203 L45.3913043,203 C45.727913,203 46,202.72435 46,202.383333 L46,171.55 C46,171.208983 45.727913,170.933333 45.3913043,170.933333 Z" id="Page-1"></path>
            </g>
        </g>
    </g>
</svg>