<?xml version="1.0" encoding="UTF-8"?>
<svg width="38px" height="37px" viewBox="0 0 38 37" version="1.1" xmlns="http://www.w3.org/2000/svg" xmlns:xlink="http://www.w3.org/1999/xlink">
    <!-- Generator: Sketch 49.3 (51167) - http://www.bohemiancoding.com/sketch -->
    <title>Page 1</title>
    <desc>Created with Sketch.</desc>
    <defs>
        <polygon id="path-1" points="-0.00025 0.620625 34.99975 0.620625 34.99975 19.706602 -0.00025 19.706602"></polygon>
    </defs>
    <g id="Page-1" stroke="none" stroke-width="1" fill="none" fill-rule="evenodd">
        <g id="320-DP-MyProperty-Hub---Trans-closed-Copy" transform="translate(-41.000000, -710.000000)">
            <g id="Group-2" transform="translate(27.000000, 618.000000)">
                <g id="Page-1" transform="translate(14.000000, 92.000000)">
                    <path d="M37.3666667,21.8093824 L25.3333333,21.8093824 C25.0933,21.8093824 24.8741667,21.9418617 24.7665,22.1517236 L22.9849333,25.6351841 L20.2457667,15.4609041 C20.1767333,15.2058507 19.95,15.0207512 19.6795667,15.0015603 C19.4148333,14.9829885 19.1577,15.1315633 19.0513,15.3748545 L15.7282,22.9534086 L13.2037333,19.0050327 C13.0948,18.8347907 12.9086,18.727074 12.7034,18.7153118 C12.5121333,18.6998352 12.2999667,18.7895992 12.1720333,18.9462218 L9.82933333,21.8093824 L0.633333333,21.8093824 C0.2831,21.8093824 0,22.086103 0,22.4284442 C0,22.7707853 0.2831,23.0475059 0.633333333,23.0475059 L10.1333333,23.0475059 C10.3258667,23.0475059 10.5076333,22.9620754 10.6279667,22.8153578 L12.6027,20.4022551 L15.2962667,24.6137322 C15.4216667,24.8093557 15.6420667,24.9207868 15.8821,24.902834 C16.1170667,24.8855003 16.3222667,24.7412589 16.4153667,24.5295398 L19.4895667,17.5174273 L22.1875667,27.538799 C22.2547,27.7876618 22.4725667,27.970285 22.7347667,27.9969047 C22.7569333,27.9987619 22.7784667,28 22.8,28 C23.0381333,28 23.2585333,27.8687589 23.3668333,27.6576588 L25.7247333,23.0475059 L37.3666667,23.0475059 C37.7169,23.0475059 38,22.7707853 38,22.4284442 C38,22.086103 37.7169,21.8093824 37.3666667,21.8093824" id="Fill-1" fill="#D04A5D"></path>
                    <g id="Group-5" transform="translate(1.000000, 0.000000)">
                        <mask id="mask-2" fill="white">
                            <use xlink:href="#path-1"></use>
                        </mask>
                        <g id="Clip-4"></g>
                        <path d="M1.8085,19.317 C1.90725,19.5595 2.141,19.70575 2.38725,19.70575 C2.466,19.70575 2.546625,19.691375 2.6235,19.6595 C2.942875,19.528875 3.096625,19.163875 2.966,18.8445 L2.867875,18.605125 C2.036,16.57325 1.24975,14.653875 1.24975,12.500125 C1.24975,5.047 4.9735,2.1245 8.162875,1.887 C11.78225,1.60575 15.9585,4.562 16.881625,10.717625 C16.927875,11.02325 17.190375,11.250125 17.49975,11.250125 C17.80975,11.250125 18.071625,11.02325 18.1185,10.717625 C19.04225,4.562625 23.216,1.6195 26.83725,1.887 C30.026,2.1245 33.74975,5.047 33.74975,12.500125 C33.74975,14.405125 33.12475,15.630125 32.25975,17.325125 C32.02475,17.787625 31.77475,18.276375 31.520375,18.81325 C31.3735,19.125125 31.506625,19.49825 31.8185,19.64575 C32.131625,19.795125 32.502875,19.6595 32.651,19.34825 C32.899125,18.82325 33.142875,18.345125 33.3735,17.893875 C34.28225,16.112625 34.99975,14.70575 34.99975,12.500125 C34.99975,4.19075 30.65225,0.91825 26.92975,0.640125 C23.29975,0.37325 19.20975,2.797 17.49975,7.922625 C15.790375,2.796375 11.711625,0.375125 8.070375,0.640125 C4.34725,0.91825 -0.00025,4.19075 -0.00025,12.500125 C-0.00025,14.900125 0.831625,16.930125 1.711,19.078875 L1.8085,19.317 Z" id="Fill-3" fill="#D04A5D" mask="url(#mask-2)"></path>
                    </g>
                    <path d="M29.8474099,25.2451081 C25.7518975,30.4598751 20.7469838,34.5312808 19.3706967,35.6102621 C17.8815361,34.5993749 12.3520171,30.6623001 8.15517512,25.2488224 C7.9435373,24.974589 7.54206678,24.9182567 7.25731772,25.1237769 C6.97385131,25.3286781 6.91549058,25.7168143 7.12776972,25.9898095 C12.1288354,32.4414122 18.7652843,36.7183382 19.0449027,36.8972399 C19.1526456,36.966572 19.2757804,37 19.3989151,37 C19.538083,37 19.6766096,36.9566674 19.791407,36.8700022 C19.8529744,36.8241935 25.9904711,32.2049401 30.8696847,25.9935238 C31.0838878,25.7211475 31.0280924,25.3330114 30.7459087,25.1262531 C30.4624422,24.9188757 30.0603304,24.97397 29.8474099,25.2451081" id="Fill-6" fill="#D04A5D"></path>
                </g>
            </g>
        </g>
    </g>
</svg>
