<?xml version="1.0" encoding="UTF-8"?>
<svg width="22px" height="22px" viewBox="0 0 22 22" version="1.1" xmlns="http://www.w3.org/2000/svg" xmlns:xlink="http://www.w3.org/1999/xlink">
    <!-- Generator: Sketch 49.3 (51167) - http://www.bohemiancoding.com/sketch -->
    <title>Fill 1</title>
    <desc>Created with Sketch.</desc>
    <defs></defs>
    <g id="Page-1" stroke="none" stroke-width="1" fill="none" fill-rule="evenodd">
        <g id="Circulation-Health-Desktop-Website-Copy-2" transform="translate(-1064.000000, -166.000000)" fill="#FFFFFF">
            <g id="Page-1" transform="translate(1064.000000, 166.000000)">
                <path d="M0.733330278,7.7 C0.733330278,3.85843333 3.85841726,0.733333333 7.69996792,0.733333333 C11.5415186,0.733333333 14.6666056,3.85843333 14.6666056,7.7 C14.6666056,11.5415667 11.5415186,14.6666667 7.69996792,14.6666667 C3.85841726,14.6666667 0.733330278,11.5415667 0.733330278,7.7 M21.8924754,21.3741 L13.3891442,12.8707333 C14.6336057,11.5023333 15.3999358,9.69136667 15.3999358,7.7 C15.3999358,3.454 11.9459502,0 7.69996792,0 C3.45398561,0 0,3.454 0,7.7 C0,11.946 3.45398561,15.4 7.69996792,15.4 C9.69095962,15.4 11.5022854,14.6340333 12.8706797,13.3892 L21.3740109,21.8925667 C21.4455106,21.9640667 21.5393769,22 21.6332432,22 C21.7271095,22 21.8209757,21.9640667 21.8924754,21.8925667 C22.0358415,21.7492 22.0358415,21.5174667 21.8924754,21.3741" id="Fill-1"></path>
            </g>
        </g>
    </g>
</svg>