<?xml version="1.0" encoding="UTF-8"?>
<svg version="1.1" viewBox="0 0 34 34" xmlns="http://www.w3.org/2000/svg">
    <g fill="none" fill-rule="evenodd">
        <g transform="translate(-41 -866)" fill="#D04A5D">
            <g transform="translate(27 618)">
                <g transform="translate(14 248)">
                    <path d="m4.5 27c-0.2765 0-0.5 0.2235-0.5 0.5v2c0 0.2765 0.2235 0.5 0.5 0.5s0.5-0.2235 0.5-0.5v-2c0-0.2765-0.2235-0.5-0.5-0.5"/>
                    <path d="m13.5 27c-0.2765 0-0.5 0.2235-0.5 0.5v2c0 0.2765 0.2235 0.5 0.5 0.5s0.5-0.2235 0.5-0.5v-2c0-0.2765-0.2235-0.5-0.5-0.5"/>
                    <path d="m23.5 27c-0.2765 0-0.5 0.2235-0.5 0.5v2c0 0.2765 0.2235 0.5 0.5 0.5s0.5-0.2235 0.5-0.5v-2c0-0.2765-0.2235-0.5-0.5-0.5"/>
                    <path d="m9.5 25c-0.2765 0-0.5 0.2235-0.5 0.5v4c0 0.2765 0.2235 0.5 0.5 0.5s0.5-0.2235 0.5-0.5v-4c0-0.2765-0.2235-0.5-0.5-0.5"/>
                    <path d="m19.5 25c-0.2765 0-0.5 0.2235-0.5 0.5v4c0 0.2765 0.2235 0.5 0.5 0.5s0.5-0.2235 0.5-0.5v-4c0-0.2765-0.2235-0.5-0.5-0.5"/>
                    <path d="m27.5 25c-0.2765 0-0.5 0.2235-0.5 0.5v4c0 0.2765 0.2235 0.5 0.5 0.5s0.5-0.2235 0.5-0.5v-4c0-0.2765-0.2235-0.5-0.5-0.5"/>
                    <path d="m30.033 32.867h-26.067c-1.5623 0-2.8333-1.271-2.8333-2.8333v-16.433h5.1c0.1955 0 0.37683-0.10087 0.48053-0.26633l2.2514-3.6029 2.4117 5.7874c0.088967 0.21477 0.3128 0.3723 0.53323 0.3485 0.23233-0.0045334 0.4386-0.15017 0.52077-0.3672l2.8265-7.5389 4.0364 12.612c0.075367 0.23573 0.2941 0.39383 0.53947 0.39383 0.0102 0 0.019833 0 0.030033-5.667e-4 0.25727-0.0136 0.4726-0.19947 0.52473-0.45163l3.0028-14.513 2.7115 7.2318c0.0833 0.22043 0.29467 0.3672 0.53097 0.3672h6.2333v16.433c0 1.5623-1.271 2.8333-2.8333 2.8333m-26.067-31.733h26.067c1.5623 0 2.8333 1.271 2.8333 2.8333v8.5h-5.8406l-3.2617-8.6995c-0.089533-0.23573-0.33093-0.3876-0.5746-0.3655-0.2516 0.019267-0.46013 0.20287-0.51113 0.4505l-2.9631 14.32-3.876-12.112c-0.073667-0.2295-0.28447-0.3876-0.52587-0.39383-0.2584-0.013033-0.45957 0.14167-0.54457 0.3672l-2.8968 7.7259-2.2825-5.478c-0.0816-0.19493-0.2652-0.32923-0.47657-0.3468-0.20853-0.015867-0.4148 0.084433-0.527 0.26463l-2.6673 4.267h-4.7855v-8.5c0-1.5623 1.271-2.8333 2.8333-2.8333m26.067-1.1333h-26.067c-2.1868 0-3.9667 1.7799-3.9667 3.9667v26.067c0 2.1868 1.7799 3.9667 3.9667 3.9667h26.067c2.1868 0 3.9667-1.7799 3.9667-3.9667v-26.067c0-2.1868-1.7799-3.9667-3.9667-3.9667"/>
                </g>
            </g>
        </g>
    </g>
</svg>
