<?xml version="1.0" encoding="UTF-8"?>
<svg width="38px" height="42px" viewBox="0 0 38 42" version="1.1" xmlns="http://www.w3.org/2000/svg" xmlns:xlink="http://www.w3.org/1999/xlink">
    <!-- Generator: Sketch 49.3 (51167) - http://www.bohemiancoding.com/sketch -->
    <title>Page 1</title>
    <desc>Created with Sketch.</desc>
    <defs></defs>
    <g id="Page-1" stroke="none" stroke-width="1" fill="none" fill-rule="evenodd">
        <g id="320-DP-MyProperty-Hub---Trans-closed-Copy" transform="translate(-40.000000, -629.000000)" fill="#D04A5D">
            <g id="Group-2" transform="translate(27.000000, 618.000000)">
                <path d="M46.25,32 C44.2471206,32 42.6176471,30.3885816 42.6176471,28.4078947 C42.6176471,26.4272079 44.2471206,24.8157895 46.25,24.8157895 C48.2528794,24.8157895 49.8823529,26.4272079 49.8823529,28.4078947 C49.8823529,30.3885816 48.2528794,32 46.25,32 Z M18.5882353,12.6578947 C19.5639412,12.9402662 20.2647059,13.7005498 20.2647059,14.5921053 C20.2647059,15.4836608 19.5639412,16.2439443 18.5882353,16.5263158 L18.5882353,12.6578947 Z M28.6470588,16.5263158 C27.6713529,16.2439443 26.9705882,15.4836608 26.9705882,14.5921053 C26.9705882,13.7005498 27.6713529,12.9402662 28.6470588,12.6578947 L28.6470588,16.5263158 Z M46.0740741,23.6 C43.3584815,23.6 41.1481481,25.7987 41.1481481,28.5 C41.1481481,30.9633 42.9876296,33.0024 45.3703704,33.344 L45.3703704,45.3 C45.3703704,46.8442 44.1079259,48.1 42.5555556,48.1 C41.0031852,48.1 39.7407407,46.8442 39.7407407,45.3 L39.7407407,41.1 C39.7407407,38.3987 37.5304074,36.2 34.8148148,36.2 C32.0992222,36.2 29.8888889,38.3987 29.8888889,41.1 L29.8888889,48.8 C29.8888889,50.3442 28.6264444,51.6 27.0740741,51.6 C25.5217037,51.6 24.2592593,50.3442 24.2592593,48.8 L24.2592593,37.5643 C29.7516667,37.2017 34.1111111,32.6545 34.1111111,27.1 L34.1111111,18.7 C34.1111111,16.2367 32.2716296,14.1976 29.8888889,13.856 L29.8888889,11.7 C29.8888889,11.3129 29.5743333,11 29.1851852,11 C27.2450741,11 25.6666667,12.5701 25.6666667,14.5 C25.6666667,16.4299 27.2450741,18 29.1851852,18 C29.5743333,18 29.8888889,17.6871 29.8888889,17.3 L29.8888889,15.2714 C31.4926296,15.5955 32.7037037,17.0095 32.7037037,18.7 L32.7037037,27.1 C32.7037037,32.1176 28.5997037,36.2 23.5555556,36.2 C18.5114074,36.2 14.4074074,32.1176 14.4074074,27.1 L14.4074074,18.7 C14.4074074,17.0095 15.6184815,15.5955 17.2222222,15.2714 L17.2222222,17.3 C17.2222222,17.6871 17.5367778,18 17.9259259,18 C19.866037,18 21.4444444,16.4299 21.4444444,14.5 C21.4444444,12.5701 19.866037,11 17.9259259,11 C17.5367778,11 17.2222222,11.3129 17.2222222,11.7 L17.2222222,13.856 C14.8394815,14.1976 13,16.2367 13,18.7 L13,27.1 C13,32.6545 17.3594444,37.2017 22.8518519,37.5643 L22.8518519,48.8 C22.8518519,51.1163 24.7455185,53 27.0740741,53 C29.4026296,53 31.2962963,51.1163 31.2962963,48.8 L31.2962963,41.1 C31.2962963,39.1701 32.8747037,37.6 34.8148148,37.6 C36.7549259,37.6 38.3333333,39.1701 38.3333333,41.1 L38.3333333,45.3 C38.3333333,47.6163 40.227,49.5 42.5555556,49.5 C44.8841111,49.5 46.7777778,47.6163 46.7777778,45.3 L46.7777778,33.344 C49.1605185,33.0024 51,30.9633 51,28.5 C51,25.7987 48.7896667,23.6 46.0740741,23.6 Z" id="Page-1"></path>
            </g>
        </g>
    </g>
</svg>